<mxfile host="app.diagrams.net" modified="2021-05-27T06:23:49.651Z" agent="5.0 (Windows NT 10.0; Win64; x64) AppleWebKit/537.36 (KHTML, like Gecko) Chrome/90.0.4430.212 Safari/537.36" etag="VHP3lLr22sw4NbMUPBkB" version="13.1.3" type="github">
  <diagram id="ip2O5Ybl5RpQ2q_g-aW2" name="Page-1">
    <mxGraphModel dx="1422" dy="794" grid="1" gridSize="10" guides="1" tooltips="1" connect="1" arrows="1" fold="1" page="1" pageScale="1" pageWidth="827" pageHeight="1169" math="0" shadow="0">
      <root>
        <mxCell id="0" />
        <mxCell id="1" parent="0" />
        <mxCell id="BDaKdYpWsBn_IQr6M0nE-1" value="Device Sensor-A" style="rounded=0;whiteSpace=wrap;html=1;verticalAlign=top;" vertex="1" parent="1">
          <mxGeometry x="30" y="200" width="250" height="130" as="geometry" />
        </mxCell>
        <mxCell id="BDaKdYpWsBn_IQr6M0nE-2" value="Device Sensoe-B" style="rounded=0;whiteSpace=wrap;html=1;verticalAlign=top;" vertex="1" parent="1">
          <mxGeometry x="80" y="360" width="120" height="60" as="geometry" />
        </mxCell>
        <mxCell id="BDaKdYpWsBn_IQr6M0nE-3" value="Device C" style="rounded=0;whiteSpace=wrap;html=1;verticalAlign=top;" vertex="1" parent="1">
          <mxGeometry x="300" y="270" width="120" height="60" as="geometry" />
        </mxCell>
        <mxCell id="BDaKdYpWsBn_IQr6M0nE-4" value="Device D" style="rounded=0;whiteSpace=wrap;html=1;verticalAlign=top;" vertex="1" parent="1">
          <mxGeometry x="540" y="270" width="120" height="60" as="geometry" />
        </mxCell>
        <mxCell id="BDaKdYpWsBn_IQr6M0nE-5" value="Device X" style="rounded=0;whiteSpace=wrap;html=1;verticalAlign=top;" vertex="1" parent="1">
          <mxGeometry x="300" y="40" width="250" height="120" as="geometry" />
        </mxCell>
        <mxCell id="BDaKdYpWsBn_IQr6M0nE-6" value="Camera" style="rounded=0;whiteSpace=wrap;html=1;" vertex="1" parent="1">
          <mxGeometry x="40" y="250" width="60" height="30" as="geometry" />
        </mxCell>
        <mxCell id="BDaKdYpWsBn_IQr6M0nE-7" value="Camera" style="rounded=0;whiteSpace=wrap;html=1;" vertex="1" parent="1">
          <mxGeometry x="110" y="250" width="60" height="30" as="geometry" />
        </mxCell>
      </root>
    </mxGraphModel>
  </diagram>
</mxfile>
